<svg width="145" height="153" viewBox="0 0 145 153" fill="none" xmlns="http://www.w3.org/2000/svg">
<g clip-path="url(#clip0)">
<path d="M8.42731 139.878C9.84301 144.789 13.9767 148.227 18.2886 151.148C18.8907 151.555 19.4929 151.954 20.0954 152.343C20.0995 152.345 20.1037 152.349 20.1078 152.35C20.1368 152.369 20.1658 152.388 20.1928 152.406C20.3172 152.487 20.4416 152.567 20.5649 152.646L20.4971 152.676C20.4971 152.676 20.4306 152.712 20.5034 152.682C20.525 152.673 20.5477 152.665 20.5693 152.656C23.0743 151.646 25.6238 150.561 27.5434 148.668C29.5348 146.703 30.6986 143.62 29.6203 141.038C29.4785 140.7 29.2995 140.379 29.0865 140.08C28.999 139.955 28.9048 139.835 28.8067 139.718C28.2119 138.992 27.4345 138.437 26.5544 138.112C25.6743 137.786 24.7233 137.7 23.7991 137.864C22.8749 138.027 22.011 138.434 21.2962 139.042C20.5813 139.65 20.0413 140.437 19.7317 141.323C19.4149 138.374 21.847 135.903 24.1875 134.08C26.5291 132.258 29.1898 130.274 29.6425 127.341C29.8953 125.709 29.3278 124.127 28.294 122.858C28.262 122.819 28.2301 122.78 28.1971 122.743C26.9387 121.264 25.1687 120.315 23.2408 120.084C19.6503 119.711 16.1626 121.611 13.5542 124.108C9.35596 128.124 6.81794 134.294 8.42731 139.878Z" fill="#F2F2F2"/>
<path d="M15.1761 133.454C14.487 134.526 13.9579 135.693 13.6056 136.917C13.3076 138.012 13.175 139.145 13.2122 140.279C13.3083 142.612 13.9633 144.889 15.1222 146.916C15.9951 148.454 17.059 149.876 18.2885 151.147C18.8905 151.555 19.4928 151.953 20.0952 152.343C20.0993 152.344 20.1035 152.348 20.1077 152.35C20.1366 152.369 20.1657 152.387 20.1927 152.406C20.317 152.486 20.4414 152.566 20.5647 152.646C20.5647 152.646 20.4305 152.711 20.5032 152.682C20.5249 152.673 20.5476 152.664 20.5692 152.655C20.3447 150.815 20.5646 148.947 21.2106 147.209C21.8566 145.471 22.9097 143.913 24.2818 142.665C25.6573 141.437 27.3035 140.551 29.0864 140.08C28.9989 139.955 28.9047 139.835 28.8066 139.717C28.118 139.91 27.4479 140.164 26.804 140.475C24.5022 141.581 22.6175 143.398 21.4289 145.657C20.3622 147.709 19.9031 150.023 20.1055 152.327C20.0026 152.234 19.8996 152.138 19.7996 152.044C17.8961 150.269 16.2054 148.232 15.0612 145.881C14.0685 143.891 13.5807 141.686 13.6405 139.462C13.7339 137.038 14.7001 134.792 16.0989 132.836C17.632 130.75 19.4432 128.884 21.4821 127.288C23.5368 125.643 25.7852 124.254 28.1771 123.155C28.2311 123.13 28.2733 123.085 28.295 123.029C28.3167 122.974 28.3163 122.912 28.2939 122.857C28.2779 122.808 28.2431 122.767 28.1969 122.743C28.1732 122.732 28.1475 122.728 28.1216 122.729C28.0958 122.73 28.0705 122.737 28.0478 122.749C27.7524 122.885 27.4592 123.023 27.1682 123.166C24.7451 124.364 22.4802 125.858 20.4255 127.614C18.4407 129.306 16.5722 131.24 15.1761 133.454Z" fill="white"/>
<path d="M56.78 65.0103C60.8277 62.7976 62.257 57.616 59.9725 53.4369C57.688 49.2578 52.5547 47.6637 48.507 49.8764C44.4593 52.0891 43.0299 57.2706 45.3144 61.4498C47.599 65.6289 52.7322 67.223 56.78 65.0103Z" fill="#363C4A"/>
<path d="M52.6435 66.5413C56.4446 66.5413 59.526 63.4599 59.526 59.6588C59.526 55.8578 56.4446 52.7764 52.6435 52.7764C48.8424 52.7764 45.761 55.8578 45.761 59.6588C45.761 63.4599 48.8424 66.5413 52.6435 66.5413Z" fill="#FFB8B8"/>
<path d="M48.9532 70.1869L48.0681 72.6904L49.3699 80.2253L54.7351 84.6831L58.9956 78.095L56.9442 71.862L55.4057 70.1262C55.4208 69.9702 55.4035 69.8127 55.3549 69.6637C55.3062 69.5147 55.2273 69.3773 55.1231 69.2602C55.0189 69.1432 54.8915 69.0489 54.7492 68.9833C54.6068 68.9178 54.4524 68.8824 54.2956 68.8793L50.9356 68.8139C50.5028 68.8054 50.0784 68.9336 49.7225 69.18C49.3667 69.4265 49.0975 69.7788 48.9532 70.1869Z" fill="#CCCCCC"/>
<path d="M63.2108 149.552L66.6463 149.552L67.1207 136.301L63.2097 136.301L63.2108 149.552Z" fill="#FFB8B8"/>
<path d="M73.272 152.741L62.4749 152.742L62.4745 148.571L69.1 148.57C70.2064 148.57 71.2675 149.009 72.0499 149.792C72.8323 150.574 73.2719 151.635 73.272 152.741L73.272 152.741Z" fill="#363C4A"/>
<path d="M39.1447 149.552L42.5802 149.552L44.2139 136.301L39.1436 136.301L39.1447 149.552Z" fill="#FFB8B8"/>
<path d="M49.2058 152.741L38.4087 152.742L38.4084 148.571L45.0338 148.57C46.1402 148.57 47.2013 149.009 47.9837 149.792C48.7661 150.574 49.2057 151.635 49.2058 152.741L49.2058 152.741Z" fill="#363C4A"/>
<path d="M69.3512 56.4942C69.7036 56.7074 70.0051 56.9953 70.2343 57.3376C70.4635 57.6799 70.6148 58.0683 70.6776 58.4754C70.7405 58.8826 70.7133 59.2985 70.598 59.694C70.4826 60.0895 70.282 60.4549 70.0102 60.7644L72.8517 66.5428L69.7613 69.126L65.8633 60.9094C65.3735 60.4184 65.0809 59.7647 65.0409 59.0723C65.0008 58.3799 65.2162 57.6968 65.6461 57.1526C66.076 56.6084 66.6907 56.2407 67.3735 56.1194C68.0564 55.998 68.76 56.1314 69.3511 56.4942H69.3512Z" fill="#FFB8B8"/>
<path d="M48.8682 101.742C47.1934 101.72 45.5215 101.597 43.8616 101.373C43.5776 101.337 43.3046 101.241 43.0609 101.09C42.8173 100.94 42.6087 100.739 42.4493 100.502C42.2898 100.264 42.1833 99.9946 42.1367 99.7122C42.0902 99.4297 42.1048 99.1406 42.1795 98.8642L45.8984 85.0942L42.9035 76.6918C42.5808 75.7844 42.617 74.788 43.0046 73.9064C43.3922 73.0248 44.1019 72.3246 44.9887 71.9489L49.1025 70.2097L50.3389 77.8633L53.2846 81.5775C53.3824 81.7008 53.5091 81.7981 53.6535 81.8608C53.7979 81.9235 53.9555 81.9496 54.1124 81.9369C54.2693 81.9242 54.4206 81.873 54.553 81.7879C54.6854 81.7028 54.7948 81.5863 54.8714 81.4489L57.1083 77.4393L55.2812 70.0718L58.0054 70.394C58.8848 70.501 59.7165 70.8528 60.4058 71.4094C61.095 71.966 61.614 72.705 61.9038 73.5422C62.741 75.9769 62.814 78.6093 62.113 81.0865L60.9841 85.0971L62.9663 97.9092C63.0205 98.2583 63.0033 98.6148 62.9157 98.957C62.8281 99.2993 62.6718 99.6202 62.4565 99.9003C62.2412 100.18 61.9713 100.414 61.6631 100.587C61.3549 100.759 61.0148 100.868 60.6635 100.905C59.3969 101.051 58.1214 101.104 56.8471 101.065C55.6907 101.015 54.8785 100.31 54.4983 99.0254C54.4776 98.9502 54.4329 98.8838 54.371 98.8364C54.3091 98.7889 54.2334 98.7631 54.1554 98.7626C54.0774 98.7622 54.0015 98.7874 53.9391 98.8342C53.8767 98.881 53.8313 98.9469 53.8099 99.0218C53.7046 99.395 53.5889 99.8105 53.4625 100.268C53.1563 101.38 51.2384 101.742 48.8682 101.742Z" fill="#363C4A"/>
<path d="M60.8214 76.8862C60.4799 76.8871 60.1416 76.8203 59.8261 76.6896C59.4555 76.536 59.1283 76.2938 58.8733 75.9841C58.6183 75.6744 58.4433 75.3068 58.3637 74.9136C58.2436 74.2899 58.3272 73.6442 58.6021 73.0717C58.877 72.4992 59.3286 72.0302 59.8904 71.7339L67.9177 67.3754L67.4787 65.6394C67.4179 65.3731 67.4367 65.0949 67.5325 64.8392C67.6284 64.5835 67.7973 64.3616 68.0181 64.2009L70.088 62.6633C70.2453 62.5427 70.4276 62.4588 70.6215 62.4178C70.8155 62.3768 71.0161 62.3798 71.2088 62.4266C71.3786 62.4692 71.5367 62.5494 71.6714 62.6611C71.8062 62.7728 71.9143 62.9133 71.9876 63.0723L73.063 65.3941C73.9139 67.231 73.1864 69.4934 71.3709 70.6564L62.3675 76.4239C61.9069 76.7225 61.3704 76.8829 60.8214 76.8862Z" fill="#363C4A"/>
<path d="M43.9092 143.392C43.8813 143.392 43.8532 143.391 43.8249 143.39L39.451 143.214C39.2814 143.203 39.1156 143.159 38.9637 143.082C38.8118 143.006 38.6769 142.9 38.5671 142.77C38.4573 142.64 38.3748 142.49 38.3247 142.327C38.2745 142.165 38.2577 141.994 38.2753 141.825L42.7146 99.1164L54.365 94.8799L61.2258 98.7623L68.7316 140.145C68.7905 140.462 68.726 140.789 68.5514 141.06C68.3768 141.33 68.1051 141.524 67.7923 141.601L67.7742 141.605L63.2967 141.495C62.9881 141.565 62.6645 141.517 62.3899 141.36C62.1152 141.203 61.9093 140.948 61.8129 140.647L52.2774 107.185C52.2487 107.098 52.1923 107.022 52.1166 106.97C52.0409 106.918 51.9503 106.892 51.8584 106.896C51.7666 106.9 51.6787 106.934 51.6082 106.993C51.5377 107.052 51.4884 107.133 51.468 107.222L45.1378 142.405C45.0763 142.685 44.921 142.936 44.6975 143.115C44.4741 143.295 44.1959 143.393 43.9092 143.392Z" fill="#363C4A"/>
<path d="M46.6323 55.3141C45.5375 56.7475 46.3707 59.1873 48.1136 59.6515C49.8566 60.1157 51.793 58.4136 51.5561 56.6255C51.18 58.5015 52.7855 60.4647 54.6916 60.6315C56.5977 60.7983 58.4509 59.3049 58.868 57.4376C59.285 55.5702 58.3543 53.53 56.77 52.4573C55.1856 51.3845 53.064 51.2452 51.2713 51.914C49.4414 52.5984 47.836 53.7751 46.6323 55.3141Z" fill="#363C4A"/>
<path d="M54.929 49.1957C53.9095 47.0562 52.862 44.8757 51.2143 43.1723C49.5665 41.4689 47.1829 40.2956 44.8472 40.6973C42.5115 41.099 40.5002 43.4563 41.0175 45.7691C41.2803 46.9439 40.2743 48.108 39.1148 48.4316C37.9553 48.7552 36.7196 48.4526 35.5733 48.0848C34.427 47.717 33.2658 47.2779 32.0631 47.3297C29.6515 47.4335 27.6352 49.7162 27.5505 52.1286C27.4658 54.5409 29.1068 56.8372 31.3084 57.8268C33.5101 58.8165 36.1436 58.5947 38.3153 57.5408C40.4869 56.4869 42.2233 54.67 43.493 52.6171C45.3693 49.5836 50.0842 48.8354 52.8073 51.139C53.099 51.368 53.4661 51.4787 53.8357 51.449C54.2053 51.4194 54.5501 51.2516 54.8015 50.9791C55.2832 50.4172 55.2133 49.4692 54.929 49.1957Z" fill="#363C4A"/>
<path d="M106.358 37.172L104.062 35.1007C95.908 27.6148 90.5251 22.7561 90.5251 16.7036C90.5251 11.7656 94.3248 7.94287 99.233 7.94287C100.592 7.95011 101.933 8.25308 103.164 8.83073C104.394 9.40838 105.484 10.2469 106.358 11.288C107.231 10.2469 108.321 9.40835 109.551 8.83069C110.782 8.25304 112.123 7.95009 113.482 7.94287C118.39 7.94287 122.19 11.7656 122.19 16.7036C122.19 22.7562 116.807 27.6149 108.654 35.1007L106.358 37.172Z" fill="#ED2D2C"/>
<path d="M68.5592 51.4162C68.3441 51.3412 68.1578 51.2008 68.0266 51.0146C67.8954 50.8284 67.8257 50.6058 67.8274 50.378V2.52198C67.8282 1.85334 68.0942 1.21231 68.567 0.739515C69.0397 0.266718 69.6808 0.000764646 70.3494 0H142.366C143.035 0.000764646 143.676 0.266718 144.148 0.739515C144.621 1.21231 144.887 1.85334 144.888 2.52198V42.8736C144.887 43.5423 144.621 44.1833 144.148 44.6561C143.676 45.1289 143.035 45.3948 142.366 45.3956H74.4307L69.7831 51.0762C69.681 51.2027 69.552 51.3049 69.4054 51.3751C69.2588 51.4453 69.0984 51.4819 68.9359 51.4822C68.8074 51.482 68.68 51.4597 68.5592 51.4162ZM70.3494 0.56044C69.8293 0.561023 69.3308 0.767872 68.963 1.1356C68.5953 1.50334 68.3884 2.00192 68.3879 2.52198V50.378C68.3879 50.4898 68.4224 50.5989 68.4868 50.6902C68.5512 50.7816 68.6423 50.8509 68.7476 50.8885C68.8529 50.9261 68.9673 50.9302 69.075 50.9002C69.1827 50.8703 69.2785 50.8078 69.3493 50.7213L74.1651 44.8352H142.366C142.886 44.8346 143.385 44.6277 143.752 44.26C144.12 43.8923 144.327 43.3937 144.327 42.8736V2.52198C144.327 2.00192 144.12 1.50334 143.752 1.1356C143.385 0.767872 142.886 0.561023 142.366 0.56044H70.3494Z" fill="#4C5466"/>
<path d="M47.3231 95.0938L46.8365 93.9626C45.13 89.8984 43.9896 87.2454 44.9956 85.0551C45.3606 84.2221 46.0415 83.5683 46.8886 83.2374C47.7356 82.9066 48.6795 82.9258 49.5124 83.2908C49.5428 83.3041 49.5729 83.3178 49.6029 83.332C50.0936 83.5605 50.5286 83.8931 50.8778 84.3066C51.227 84.7201 51.4821 85.2047 51.6252 85.7267C52.1144 85.4952 52.6482 85.3729 53.1895 85.3683C53.7307 85.3637 54.2664 85.477 54.7595 85.7003C55.1708 85.8835 55.542 86.146 55.8519 86.4727C56.1618 86.7994 56.4043 87.1839 56.5656 87.6043C56.7269 88.0247 56.8038 88.4728 56.792 88.9229C56.7801 89.373 56.6797 89.8164 56.4964 90.2278C56.4829 90.258 56.469 90.2881 56.4547 90.318C55.4487 92.5084 52.6931 93.372 48.4983 94.7258L47.3231 95.0938Z" fill="#ED2D2C"/>
<path d="M49.1983 89.5372C49.0672 89.1466 48.8521 88.7896 48.5681 88.4912C48.2842 88.1927 47.9382 87.9602 47.5546 87.81C47.171 87.6597 46.7592 87.5954 46.3481 87.6216C45.937 87.6477 45.5366 87.7637 45.1751 87.9613L40.1384 84.1777L38.9226 87.6388L44.1278 91.9765C44.5001 92.5617 45.074 92.99 45.741 93.1803C46.4079 93.3706 47.1215 93.3096 47.7465 93.0089C48.3715 92.7083 48.8645 92.1888 49.1321 91.5489C49.3997 90.909 49.4232 90.1932 49.1983 89.5372H49.1983Z" fill="#FFB8B8"/>
<path d="M41.9766 90.7302C41.7547 90.7301 41.5374 90.6671 41.35 90.5484L39.187 89.1813C37.4756 88.0998 36.8593 85.8047 37.7534 83.8426L42.1875 74.1131C42.3654 73.7052 42.6394 73.3465 42.9861 73.0676C43.3327 72.7886 43.7418 72.5977 44.1782 72.5111C44.5729 72.4389 44.9792 72.4649 45.3614 72.5867C45.7437 72.7085 46.0901 72.9224 46.3702 73.2096C46.8094 73.6683 47.0895 74.2561 47.1692 74.8862C47.2489 75.5163 47.124 76.1553 46.8128 76.7089L42.4341 84.7253L43.7449 85.9452C43.9404 86.136 44.0756 86.3799 44.1337 86.6467C44.1919 86.9135 44.1705 87.1916 44.0722 87.4464L43.1676 89.8611C43.1009 90.0477 42.9932 90.217 42.8525 90.3567C42.7118 90.4963 42.5417 90.6027 42.3545 90.6681C42.2327 90.7091 42.1051 90.7301 41.9766 90.7302Z" fill="#363C4A"/>
<path d="M88.2692 153H0.28022C0.205901 153 0.13463 152.97 0.0820785 152.918C0.0295271 152.865 0 152.794 0 152.72C0 152.645 0.0295271 152.574 0.0820785 152.522C0.13463 152.469 0.205901 152.439 0.28022 152.439H88.2692C88.3436 152.439 88.4148 152.469 88.4674 152.522C88.5199 152.574 88.5495 152.645 88.5495 152.72C88.5495 152.794 88.5199 152.865 88.4674 152.918C88.4148 152.97 88.3436 153 88.2692 153Z" fill="#CCCCCC"/>
</g>
<defs>
<clipPath id="clip0">
<rect width="144.888" height="153" fill="white"/>
</clipPath>
</defs>
</svg>
